<svg xmlns="http://www.w3.org/2000/svg" style="display: none;">
	<symbol id="loading" viewBox="0 0 24 24">
		<path class="opacity-75" fill="currentColor" d="M4 12a8 8 0 018-8V0C5.373 0 0 5.373 0 12h4zm2 5.291A7.962 7.962 0 014 12H0c0 3.042 1.135 5.824 3 7.938l3-2.647z">
		</path>
	</symbol>
	<symbol id="book-open-page" viewBox="0 0 24 24">
		<path d="m19 1-5 5v11l5-4.5V1m2 4v13.5c-1.1-.35-2.3-.5-3.5-.5-1.7 0-4.15.65-5.5 1.5V6c-1.45-1.1-3.55-1.5-5.5-1.5-1.95 0-4.05.4-5.5 1.5v14.65c0 .25.25.5.5.5.1 0 .15-.05.25-.05C3.1 20.45 5.05 20 6.5 20c1.95 0 4.05.4 5.5 1.5 1.35-.85 3.8-1.5 5.5-1.5 1.65 0 3.35.3 4.75 1.05.1.05.15.05.25.05.25 0 .5-.25.5-.5V6c-.6-.45-1.25-.75-2-1M10 18.41C8.75 18.09 7.5 18 6.5 18c-1.06 0-2.32.19-3.5.5V7.13c.91-.4 2.14-.63 3.5-.63 1.36 0 2.59.23 3.5.63v11.28Z" />
	</symbol>
	<symbol id="bookshelf" viewBox="0 0 24 24">
		<path d="M9 3v15h3V3H9m3 2 4 13 3-1-4-13-3 1M5 5v13h3V5H5M3 19v2h18v-2H3Z" />
	</symbol>
	<symbol id="book-plus-multiple" viewBox="0 0 24 24">
		<path d="M13.09 20H5V6H3v14a2 2 0 0 0 2 2h8.81a5.5 5.5 0 0 1-.72-2M19 2h-5v5l-2-1.5L10 7V2H9a2 2 0 0 0-2 2v12a2 2 0 0 0 2 2h4.09A6 6 0 0 1 21 13.34V4a2 2 0 0 0-2-2m1 13v3h3v2h-3v3h-2v-3h-3v-2h3v-3Z" />
	</symbol>
	<symbol id="ebook" viewBox="0 0 24 24">
		<path d="M15 12H5v1h10v-1zm-4 2H5v1h6v-1zm4-6H5v1h10V8zm0 2H5v1h10v-1zm0-6H5v1h10V4zm0 2H5v1h10V6zm7.44 10.277c.183-2.314-.433-2.54-3.288-5.322.171 1.223.528 3.397.911 5.001.089.382-.416.621-.586.215-.204-.495-.535-2.602-.82-4.72-.154-1.134-1.661-.995-1.657.177.005 1.822.003 3.341 0 6.041-.003 2.303 1.046 2.348 1.819 4.931.132.444.246.927.339 1.399L23 22.66c-1.339-2.621-.693-4.689-.56-6.383zM16.012 18H3V2h14v7.894c.646-.342 1.348-.274 1.877.101L19 9.977V1.5A1.5 1.5 0 0 0 17.5 0h-15A1.5 1.5 0 0 0 1 1.5v17A1.5 1.5 0 0 0 2.5 20h13.974c-.245-.515-.425-1.124-.462-2z" />
	</symbol>
	<symbol id="book-completed" viewBox="0 0 512 512">
		<path d="M85 1.5C64.4 6 47 22.7 40.3 44.5c-1.7 5.7-1.8 14.8-1.8 211.5s.1 205.8 1.8 211.5c6.8 22 24.2 38.6 45.2 43 6 1.3 32.9 1.5 186.6 1.5h179.6l4.3-2.3c3-1.6 5.1-3.7 6.7-6.7l2.3-4.3v-90.8l3.5-3.6c2.3-2.4 3.7-5.1 4.5-8.7.8-3.6 1-58.9.8-194.1-.3-177.7-.4-189.2-2-192.2-1-1.8-3.5-4.5-5.5-6L462.7.5 277.1.3C121.4.2 90.5.4 85 1.5zM98 205v188h-4.9c-10 0-28.4 7.9-34.5 14.8-1.1 1.2-2.3 2.2-2.8 2.2-1.1 0-1-346.5.1-355.2 1.7-12.9 9.5-25.1 20.2-31.5 5.5-3.3 14.2-6.1 19.2-6.2L98 17v188zm358.5 0v187.5h-341l-.3-187.8L115 17l170.7.2 170.8.3V205zM414 418.5v8.5h-27.5c-26 0-27.6.1-29.5 2-4.3 4.3-3.4 11 2 13.7 1.8.9 9.8 1.3 28.8 1.3H414v17H179.9l-2.4 2.5c-3.5 3.4-3.3 7.8.4 11.6l2.9 2.9H414v17H253.7c-176.9 0-166.4.4-177.6-6.3-17.9-10.7-25.3-34.6-16.7-54 4.3-9.7 14.4-19 24.9-22.7 5-1.8 12.1-1.9 167.5-1.9L414 410v8.5zm34 34V495h-17v-85h17v42.5z" />
		<path d="M265.7 61c-32.7 5.2-60.6 19.4-83.2 42.4-21.4 21.9-34.4 47.4-39.7 78.1-1.7 10.1-1.9 14.6-1.5 28 .6 17.6 2.1 25.7 7.3 41.4 7.3 22.1 19.5 41.1 37.2 58.3 20.1 19.5 43.6 31.8 72.2 37.9 14.9 3.2 41 3.2 55.6.1 30.3-6.5 53.1-18.8 74.5-40.1 12.7-12.7 22.1-25.9 28.8-40.2 35.5-75.7.4-165.2-77-196.6-17.5-7.1-29.2-9.4-50.4-9.8-9.9-.2-20.6 0-23.8.5zm50.1 19.4c43 10.8 77.5 42.3 91.2 83.4 4.9 14.9 6.4 24.2 6.4 40.7 0 21.5-3.5 37.5-12.4 55.9-22.9 47.7-74.6 77-126.4 71.7-31.4-3.1-55.7-14.4-77.7-36.1-12.2-12-18.9-21.1-25.6-34.5-16.2-32.1-17.5-71.9-3.7-105.3 17.3-41.7 54.8-71.1 99.9-78.2 3.3-.5 13.2-.7 22-.5 13 .3 17.9.8 26.3 2.9z" />
		<path d="M301.3 203.5 243.5 253l-15.6-15.5C214.3 223.9 212 222 209.1 222c-4.5 0-8.1 3.8-8.1 8.6 0 3.6 1.1 4.9 18.8 22.6 10.3 10.4 19.7 19.1 21 19.4 1.2.4 3.2.4 4.5 0 3.1-.7 123.5-104 124.9-107.1 2.3-5.1-2-11.5-7.9-11.5-2.9 0-10.1 5.8-61 49.5zM84 429c-4.3 4.3-3.4 11 2 13.7 2 1 28.1 1.2 124.3 1l121.9-.2 2.4-2.8c3.1-3.7 3.1-8.1-.1-11.2l-2.4-2.5H209c-121.1 0-123 0-125 2zM84.9 462.3c-4.6 3.5-5 8.8-1 12.8l2.9 2.9h65.4l2.9-2.9c4-4 3.6-9.3-1-12.8-2.3-1.8-66.9-1.8-69.2 0z" />
	</symbol>
</svg>
